<?xml version="1.0" standalone="no"?>
<!DOCTYPE svg PUBLIC "-//W3C//DTD SVG 20010904//EN"
 "http://www.w3.org/TR/2001/REC-SVG-20010904/DTD/svg10.dtd">
<svg version="1.0" xmlns="http://www.w3.org/2000/svg"
 width="600.000000pt" height="200.000000pt" viewBox="0 0 600.000000 200.000000"
 preserveAspectRatio="xMidYMid meet">

<g transform="translate(0.000000,200.000000) scale(0.100000,-0.100000)"
fill="#000000" stroke="none">
<path d="M2328 1984 c-16 -8 -28 -21 -28 -29 0 -18 14 -19 40 -3 60 38 76 -58
35 -215 -24 -95 -23 -130 3 -113 6 3 38 52 72 108 64 102 124 178 143 178 6 0
7 -24 2 -72 -5 -40 -9 -95 -9 -123 -1 -47 1 -50 24 -50 22 0 33 15 82 110 56
108 112 175 144 175 19 0 17 -29 -11 -153 -9 -46 -14 -93 -11 -113 7 -37 38
-64 73 -64 30 0 29 18 -1 29 -13 5 -26 17 -30 26 -12 32 -6 109 15 183 22 80
20 117 -9 124 -55 15 -126 -55 -199 -196 -27 -52 -49 -84 -51 -74 -2 9 4 53
12 97 18 95 11 131 -27 131 -30 0 -84 -57 -146 -153 -24 -37 -45 -66 -47 -64
-2 1 3 25 11 52 8 26 15 79 15 116 0 61 -3 70 -26 88 -31 25 -40 25 -76 5z"/>
<path d="M445 1974 c-110 -24 -190 -69 -272 -150 -121 -119 -170 -255 -143
-391 18 -89 75 -195 145 -271 l63 -67 -14 55 c-18 72 -18 191 1 265 60 228
294 373 527 324 73 -15 176 -71 229 -124 l44 -43 52 49 c63 60 159 107 248
122 136 23 290 -29 388 -132 98 -103 132 -199 124 -355 -3 -55 -8 -112 -12
-126 -13 -48 113 98 151 175 93 189 62 357 -96 516 -54 54 -94 85 -143 108
-225 107 -478 65 -655 -109 -28 -27 -53 -50 -56 -50 -3 0 -26 20 -51 45 -140
141 -341 201 -530 159z"/>
<path d="M3452 1908 c-7 -7 -12 -18 -12 -25 0 -15 16 -17 25 -3 4 6 15 4 29
-5 21 -14 25 -14 47 4 20 16 22 22 11 33 -11 11 -14 10 -21 -1 -7 -10 -13 -10
-29 -2 -26 14 -35 14 -50 -1z"/>
<path d="M2972 1898 c-15 -15 -16 -45 -2 -53 16 -10 41 16 38 38 -4 25 -20 31
-36 15z"/>
<path d="M3090 1851 c-5 -11 -10 -31 -10 -46 0 -54 -75 -156 -102 -138 -7 3
-8 31 -5 69 5 52 4 64 -8 64 -19 0 -27 -34 -23 -101 3 -53 3 -54 37 -57 39 -4
80 29 106 85 l17 35 29 -28 c16 -15 29 -36 29 -46 0 -23 -38 -38 -67 -27 -19
7 -23 5 -23 -10 0 -21 19 -31 55 -31 25 0 120 87 130 121 9 26 19 24 50 -12
37 -44 30 -64 -23 -65 -51 -1 -64 -11 -38 -30 29 -21 61 -17 94 11 34 29 42
31 42 10 0 -17 30 -35 60 -35 11 0 32 12 47 26 23 23 27 24 42 10 22 -20 50
-20 78 -1 19 13 22 13 34 -1 35 -42 104 -37 148 10 13 13 38 27 56 30 38 8 63
32 48 47 -7 7 -14 5 -23 -6 -21 -25 -45 -19 -48 13 -4 56 -82 81 -142 46 -15
-9 -41 -40 -57 -68 -45 -79 -98 -69 -92 17 5 71 2 77 -35 77 -37 0 -80 -34
-113 -90 -18 -32 -33 -39 -33 -17 0 7 -15 28 -34 46 -30 29 -33 37 -29 72 4
25 2 39 -5 39 -16 0 -44 -45 -42 -67 3 -28 1 -36 -20 -71 l-21 -34 -29 41
c-17 23 -35 41 -41 41 -7 0 -8 16 -3 45 5 37 4 45 -10 45 -8 0 -20 -9 -26 -19z
m410 -105 c0 -52 -31 -99 -64 -94 -38 5 -34 66 8 111 38 41 56 36 56 -17z
m240 11 c0 -13 9 -32 20 -42 l20 -18 -22 -24 c-39 -42 -98 -21 -98 36 0 32 33
71 60 71 14 0 20 -7 20 -23z m48 -7 c3 -21 2 -22 -12 -11 -19 16 -21 44 -3 39
6 -3 14 -15 15 -28z"/>
<path d="M4789 1801 c-24 -19 -24 -22 -27 -230 l-3 -211 -49 39 c-155 123
-389 97 -534 -60 -100 -108 -156 -265 -156 -436 1 -236 91 -408 258 -490 73
-37 80 -38 181 -38 124 0 159 10 241 71 42 30 60 39 60 29 0 -9 11 -27 25 -40
22 -22 32 -25 105 -25 l80 0 0 705 0 705 -79 0 c-63 0 -84 -4 -102 -19z m-149
-502 c25 -11 62 -37 83 -57 l37 -36 0 -286 0 -286 -32 -31 c-59 -56 -114 -78
-198 -78 -89 0 -135 21 -197 87 -60 66 -85 140 -90 273 -9 218 49 349 182 411
65 31 152 32 215 3z"/>
<path d="M5508 1470 c-153 -27 -277 -144 -313 -292 -6 -24 -4 -28 16 -29 44
-2 54 3 111 57 69 65 130 95 212 101 155 13 256 -77 256 -226 0 -40 -2 -43
-22 -37 -48 15 -248 19 -310 6 -171 -33 -287 -140 -318 -292 -27 -133 40 -277
157 -340 143 -77 364 -56 459 43 32 34 44 36 44 10 0 -11 12 -29 26 -40 22
-17 41 -21 101 -21 l75 0 -4 388 c-4 336 -7 394 -22 437 -36 103 -117 184
-218 218 -58 20 -187 29 -250 17z m207 -561 l75 -11 0 -138 0 -138 -39 -31
c-62 -50 -118 -71 -189 -71 -183 0 -276 183 -160 316 66 75 156 96 313 73z"/>
<path d="M2354 1330 c27 -452 197 -762 493 -897 54 -25 55 -25 99 -8 109 42
245 154 323 268 110 161 191 460 191 704 l0 43 -52 0 c-69 0 -125 -16 -138
-40 -5 -10 -15 -63 -20 -117 -31 -301 -120 -498 -277 -610 l-64 -46 -36 19
c-63 33 -156 136 -200 220 -67 129 -95 233 -113 417 -5 54 -14 106 -20 117
-13 24 -68 40 -139 40 l-54 0 7 -110z"/>
<path d="M3684 1433 c-12 -2 -32 -15 -45 -29 l-24 -26 -3 -484 -3 -484 79 0
c64 0 85 4 103 19 l24 19 3 496 3 496 -58 -1 c-32 -1 -68 -4 -79 -6z"/>
<path d="M4403 199 c0 -24 -12 -77 -26 -118 l-24 -73 68 4 c78 4 112 23 143
79 14 26 17 44 12 72 -9 48 -39 67 -113 74 l-58 5 -2 -43z m97 21 c23 -12 35
-66 25 -109 -10 -48 -51 -91 -86 -91 -16 0 -29 3 -29 8 -1 19 56 202 63 202 5
0 17 -5 27 -10z"/>
<path d="M5030 218 c0 -13 -6 -34 -13 -48 -19 -37 -41 -136 -34 -154 4 -9 13
-13 22 -10 8 3 12 10 10 15 -3 5 8 52 25 106 16 53 30 101 30 105 0 4 -9 8
-20 8 -14 0 -20 -7 -20 -22z"/>
<path d="M5412 233 c-18 -3 -21 -8 -13 -17 8 -10 3 -40 -18 -110 l-28 -96 23
0 c16 0 24 6 24 18 0 9 13 61 29 115 18 61 25 96 17 96 -6 -1 -21 -4 -34 -6z"/>
<path d="M5540 213 c-15 -20 -20 -38 -18 -67 3 -35 7 -42 28 -44 21 -3 22 -2
11 12 -15 17 -7 68 15 104 22 34 -8 30 -36 -5z"/>
<path d="M5617 219 c7 -25 -16 -109 -30 -109 -6 0 -8 -3 -4 -6 9 -10 -20 -61
-45 -78 -28 -20 -16 -21 22 -1 61 31 102 117 86 178 -3 14 -12 27 -20 30 -10
4 -12 0 -9 -14z"/>
<path d="M5723 214 c-13 -21 -15 -32 -6 -55 10 -26 8 -32 -19 -59 -22 -23 -28
-35 -23 -52 11 -34 22 -42 60 -42 70 0 91 57 46 124 -33 48 -38 79 -19 98 9 9
8 12 -5 12 -9 0 -24 -12 -34 -26z m37 -124 c16 -38 0 -83 -28 -78 -32 6 -25
108 8 108 4 0 13 -14 20 -30z"/>
<path d="M5791 221 c9 -13 9 -26 1 -50 -10 -29 -10 -30 7 -21 32 17 39 50 15
74 -21 22 -37 20 -23 -3z"/>
<path d="M5916 231 c-3 -5 1 -8 10 -7 21 1 39 -27 31 -49 -4 -9 -20 -22 -36
-28 l-29 -11 24 -19 c28 -22 32 -67 8 -91 -8 -9 -11 -16 -6 -16 6 0 22 14 37
32 29 34 28 71 -3 95 -11 8 -12 12 -4 13 14 0 52 36 52 49 0 30 -70 56 -84 32z"/>
<path d="M4658 142 c-57 -34 -74 -123 -27 -135 21 -6 89 16 89 27 0 3 -11 1
-24 -6 -14 -6 -32 -8 -41 -4 -22 8 -14 69 14 107 25 34 25 34 -11 11z"/>
<path d="M4706 145 c4 -8 -2 -27 -11 -41 -18 -27 -7 -26 28 4 24 21 22 52 -3
52 -13 0 -18 -5 -14 -15z"/>
<path d="M4780 141 c-13 -26 -14 -23 20 -66 17 -21 28 -45 26 -52 -8 -21 12
-15 24 7 11 20 -7 71 -30 85 -5 3 -10 15 -10 26 0 25 -16 25 -30 0z"/>
<path d="M4851 143 c7 -10 15 -20 16 -22 2 -2 3 5 3 17 0 14 -6 22 -16 22 -14
0 -15 -3 -3 -17z"/>
<path d="M4943 145 c-25 -18 -56 -90 -48 -115 7 -22 27 -31 45 -20 11 7 11 11
1 24 -15 18 0 78 27 109 18 21 4 22 -25 2z"/>
<path d="M5128 142 c-57 -34 -74 -123 -27 -135 21 -6 89 16 89 27 0 3 -11 1
-24 -6 -14 -6 -32 -8 -41 -4 -22 8 -14 69 14 107 25 34 25 34 -11 11z"/>
<path d="M5176 145 c4 -8 -1 -26 -10 -40 -21 -31 -7 -33 22 -2 28 29 29 57 2
57 -13 0 -18 -5 -14 -15z"/>
<path d="M4750 25 c0 -8 7 -15 16 -15 14 0 14 3 4 15 -7 8 -14 15 -16 15 -2 0
-4 -7 -4 -15z"/>
<path d="M5844 29 c-8 -13 13 -29 39 -29 25 0 21 15 -8 28 -17 8 -26 8 -31 1z"/>
</g>
</svg>
